<?xml version="1.0" standalone="no"?>
<!DOCTYPE svg PUBLIC "-//W3C//DTD SVG 20010904//EN"
 "http://www.w3.org/TR/2001/REC-SVG-20010904/DTD/svg10.dtd">
<svg version="1.0" xmlns="http://www.w3.org/2000/svg"
 width="500.000000pt" height="500.000000pt" viewBox="0 0 500.000000 500.000000"
 preserveAspectRatio="xMidYMid meet">

<g transform="translate(0.000000,500.000000) scale(0.100000,-0.100000)"
fill="#000000" stroke="none">
<path d="M855 3152 c-102 -34 -170 -78 -240 -154 -100 -108 -145 -225 -145
-378 0 -164 55 -295 169 -402 142 -135 323 -186 513 -147 120 25 266 123 347
234 l22 30 16 -25 c35 -53 151 -157 209 -187 115 -61 270 -79 403 -48 176 42
338 190 397 365 19 59 24 92 24 180 0 178 -40 271 -171 401 -241 240 -658 202
-850 -78 l-31 -44 -30 46 c-16 25 -55 67 -85 94 -148 132 -363 176 -548 113z
m355 -277 l0 -35 -75 0 -75 0 0 -215 0 -215 -40 0 -40 0 0 215 0 215 -75 0
-75 0 0 35 0 35 190 0 190 0 0 -35z m887 1 c77 -43 122 -123 123 -222 0 -48
-28 -130 -57 -164 -53 -64 -165 -97 -285 -85 l-68 7 0 243 c0 185 3 245 13
249 6 3 59 4 117 3 94 -2 110 -5 157 -31z"/>
<path d="M1893 2844 c-10 -4 -13 -52 -13 -190 l0 -184 63 0 c116 1 181 53 193
157 11 85 -24 166 -85 197 -29 16 -138 29 -158 20z"/>
</g>
</svg>
